<svg width="22" height="22" viewBox="0 0 22 22" fill="none" xmlns="http://www.w3.org/2000/svg">
<path d="M12.744 1.75274L20.272 6.67561C20.538 6.84956 20.671 6.93653 20.7674 7.05255C20.8527 7.15525 20.9167 7.27404 20.9558 7.40196C21 7.54647 21 7.70606 21 8.02525V15.4014C21 17.0917 21 17.9369 20.673 18.5825C20.3854 19.1504 19.9265 19.6121 19.362 19.9015C18.7202 20.2305 17.8802 20.2305 16.2 20.2305H5.8C4.11984 20.2305 3.27976 20.2305 2.63803 19.9015C2.07354 19.6121 1.6146 19.1504 1.32698 18.5825C1 17.9369 1 17.0917 1 15.4014V8.02525C1 7.70606 1 7.54647 1.04417 7.40196C1.08327 7.27404 1.14735 7.15525 1.23265 7.05255C1.32901 6.93653 1.46201 6.84956 1.72802 6.67561L9.25604 1.75274M12.744 1.75274C12.1127 1.33994 11.7971 1.13355 11.457 1.05324C11.1564 0.982254 10.8436 0.982254 10.543 1.05324C10.2029 1.13355 9.88728 1.33994 9.25604 1.75274M12.744 1.75274L18.9361 5.80204C19.624 6.25186 19.9679 6.47676 20.087 6.76198C20.1911 7.01123 20.1911 7.29214 20.087 7.5414C19.9679 7.82661 19.624 8.05152 18.9361 8.50133L12.744 12.5506C12.1127 12.9634 11.7971 13.1698 11.457 13.2501C11.1564 13.3211 10.8436 13.3211 10.543 13.2501C10.2029 13.1698 9.88728 12.9634 9.25604 12.5506L3.06386 8.50133C2.37601 8.05152 2.03209 7.82661 1.91297 7.5414C1.80888 7.29214 1.80888 7.01123 1.91297 6.76198C2.03209 6.47676 2.37601 6.25186 3.06386 5.80205L9.25604 1.75274M20.5 18.2184L13.8572 12.182M8.14282 12.182L1.5 18.2184" stroke="#E87554" stroke-width="2" stroke-linecap="round" stroke-linejoin="round"/>
</svg>
