<svg width="141" height="56" viewBox="0 0 141 56" fill="none" xmlns="http://www.w3.org/2000/svg">
<path d="M36.9744 35.0649V23.1591H39.3889V33.0501H44.9838V35.0649H36.9744ZM60.2797 35.0649V23.1591H62.6942V35.0649H60.2797ZM78.5437 35.0649V23.1591H80.9581V35.0649H78.5437ZM99.9214 35.0649L95.9084 23.1591H98.4395L100.538 30.0528L101.054 31.9511H101.087C101.276 31.1962 101.448 30.5635 101.603 30.0528L103.685 23.1591H106.132L102.119 35.0649H99.9214Z" fill="white"/>
<path d="M116.621 9.43988C103.432 6.24712 89.9906 4.65073 76.5495 4.58934C70.2569 4.58934 63.9139 4.77353 57.6212 5.63312C52.134 6.36991 46.6972 7.5979 41.3107 9.25568C30.588 12.6326 19.966 17.6674 10.6529 25.0967C6.47454 28.4123 1.33973 32.6488 0.181882 38.9729C-0.32153 41.7359 0.232224 44.6217 1.69212 46.832C3.10167 48.981 5.16566 50.3318 7.17931 51.2528C9.79706 52.4808 12.6162 53.0334 15.3346 53.586C18.6068 54.1999 21.879 54.6297 25.1511 54.9367C31.6955 55.4893 38.2399 55.6735 44.8346 55.5507C57.8226 55.2437 70.8106 53.7087 83.5973 50.823C96.384 47.9986 109.02 43.8849 121.253 38.4817C126.589 36.1486 132.076 33.5084 136.405 28.842C138.318 26.8159 140.231 24.1757 140.08 20.8601C139.929 18.1586 138.52 15.9482 136.858 14.229C134.945 12.2642 132.68 11.0363 130.364 9.86967C127.696 8.58029 124.927 7.4137 122.159 6.36991C116.47 4.28234 110.631 2.74736 104.741 1.70357C92.4574 -0.445405 79.9224 -0.506804 67.6391 1.21238C64.669 1.64217 61.6989 2.13336 58.7791 2.74736C58.3763 2.80876 58.5274 3.54555 58.9301 3.48415C70.9617 1.08958 83.2449 0.229987 95.4275 1.33517C106.905 2.37896 118.383 5.14193 129.156 10.1767C131.522 11.2819 133.888 12.5098 135.952 14.3518C137.815 16.071 139.577 18.527 139.476 21.5355C139.375 25.0967 136.657 27.7983 134.492 29.763C132.227 31.7892 129.76 33.447 127.193 34.7978C121.605 37.8063 115.715 40.0781 109.926 42.2271C103.885 44.4375 97.7935 46.4022 91.6519 47.9986C79.3183 51.3142 66.733 53.4018 54.1477 54.2613C47.855 54.6911 41.5624 54.8139 35.2697 54.6297C28.7757 54.4455 22.2817 54.0157 15.8883 52.8492C13.1699 52.358 10.4515 51.8054 7.88409 50.7002C5.71942 49.7792 3.55474 48.4284 2.09485 46.218C-1.73108 40.3237 2.54792 33.5084 6.4242 29.6402C10.5018 25.6493 15.1332 22.3951 19.815 19.5708C24.7484 16.6236 29.8832 14.1676 35.169 12.1414C40.4045 10.1153 45.7407 8.58029 51.1775 7.4751C56.7654 6.30852 62.3533 5.75592 67.9915 5.51032C81.0802 4.89633 94.169 5.75592 107.107 8.15049C110.228 8.70309 113.349 9.37848 116.47 10.1153C116.823 10.2995 117.024 9.56268 116.621 9.43988Z" fill="white"/>
</svg>
