<svg width="161" height="56" viewBox="0 0 161 56" fill="none" xmlns="http://www.w3.org/2000/svg">
<path d="M91.363 30.121H74.3935V0H62.8081V40.1755H91.363V30.121Z" fill="white"/>
<path d="M105.861 0H94.2544V40.1755H105.861V0Z" fill="white"/>
<path d="M120.358 0H108.751V40.1755H120.358V0Z" fill="white"/>
<path d="M149.227 0L143.906 18.8787C142.963 22.315 141.957 26.6847 141.957 26.6847H141.853C141.853 26.6847 140.91 22.2938 139.904 18.8787L134.457 0H122.537L135.232 40.1755H148.221L160.98 0H149.227Z" fill="white"/>
<path d="M37.647 17.5639L30.3773 18.3699L35.6358 12.7912L32.5351 9.80029L24.6579 18.1578L16.7807 9.80029L13.7011 12.7912L18.9595 18.3699L11.6689 17.5639L11.208 21.8699L18.771 22.6972L11.7318 26.6002L13.7849 30.3971L22.521 25.5608V45.9243H26.7948V25.5608L35.531 30.3971L37.5841 26.6002L30.5449 22.6972L38.1079 21.8699L37.647 17.5639Z" fill="white"/>
<path d="M0 55.7239H49.3164V0H0V55.7239ZM4.31571 4.36967H45.0216V51.3754H4.31571V4.36967Z" fill="white"/>
<path d="M65.1965 47.6421L62.4102 55.7451H64.0443L64.568 54.0269H67.4591L68.0038 55.7451H69.7008L66.8935 47.6421H65.1965V47.6421ZM64.9661 52.7542L65.6784 50.4209C65.8041 49.9966 66.0136 49.1694 66.0136 49.1694H66.0345C66.0345 49.1694 66.2231 49.9754 66.3488 50.4209L67.0611 52.7542H64.9661Z" fill="white"/>
<path d="M71.9214 49.0209H74.3306V55.7239H75.9647V49.0209H78.3531V47.6421H71.9214V49.0209Z" fill="white"/>
<path d="M83.8001 47.6421H82.166V55.7239H87.5502V54.3663H83.8001V47.6421Z" fill="white"/>
<path d="M93.6677 47.6421L90.8813 55.7451H92.5155L93.0392 54.0269H95.9513L96.496 55.7451H98.1929L95.3856 47.6421H93.6677V47.6421ZM93.4373 52.7542L94.1496 50.4209C94.2753 49.9966 94.4848 49.1694 94.4848 49.1694H94.5057C94.5057 49.1694 94.6943 49.9754 94.82 50.4209L95.5323 52.7542H93.4373Z" fill="white"/>
<path d="M106.678 51.8842C106.678 52.4569 106.72 53.2842 106.72 53.2842H106.699C106.699 53.2842 106.405 52.5842 106.133 52.16L103.472 47.6418H101.838V55.7448H103.431V51.5448C103.431 50.9721 103.389 50.1236 103.389 50.1236H103.41C103.41 50.1236 103.724 50.8236 103.975 51.2479L106.699 55.7236H108.27V47.6206H106.678V51.8842" fill="white"/>
<path d="M112.083 49.0209H114.492V55.7239H116.105V49.0209H118.514V47.6421H112.083V49.0209Z" fill="white"/>
<path d="M123.521 47.6421L120.735 55.7451H122.369L122.893 54.0269H125.784L126.329 55.7451H128.025L125.218 47.6421H123.521V47.6421ZM123.291 52.7542L124.003 50.4209C124.129 49.9966 124.338 49.1694 124.338 49.1694H124.359C124.359 49.1694 124.548 49.9754 124.694 50.4209L125.407 52.7542H123.291Z" fill="white"/>
</svg>
