<svg width="231" height="230" viewBox="0 0 231 230" fill="none" xmlns="http://www.w3.org/2000/svg">
<path d="M188.984 133.424L187.034 133.855L188.548 135.158L218.378 160.833L179.215 156.307L177.227 156.077L178.237 157.804L198.098 191.8L162.63 174.897L160.825 174.037L161.22 175.997L168.977 214.509L140.9 186.986L139.471 185.585L139.209 187.569L134.036 226.643L116.394 191.452L115.5 189.669L114.606 191.452L96.9575 226.657L91.691 187.666L91.423 185.682L89.9976 187.088L62.0149 214.701L69.6808 176.095L70.0701 174.135L68.2679 174.998L32.7976 191.994L52.5645 158.003L53.568 156.277L51.5849 156.507L12.5039 161.034L42.2548 135.256L43.7669 133.946L41.8115 133.523L3.39503 125.211L39.8734 110.528L41.7263 109.782L40.019 108.745L6.39579 88.3311L45.7516 86.2987L47.7503 86.1954L46.4676 84.6591L21.2522 54.456L59.025 65.2614L60.9424 65.81L60.235 63.9453L46.2857 27.1784L78.527 49.7196L80.1651 50.8648L80.0995 48.8672L78.8061 9.51251L101.992 41.2894L103.17 42.903L103.756 40.9936L115.3 3.40611L126.844 40.9936L127.432 42.9063L128.609 41.2883L151.794 9.42051L150.501 48.7672L150.435 50.7696L152.075 49.6185L184.314 26.986L170.365 63.8461L169.658 65.7146L171.577 65.1608L209.349 54.2632L184.231 84.4605L182.951 86.0002L184.951 86.0988L224.304 88.0387L190.679 108.546L188.972 109.588L190.829 110.329L227.412 124.925L188.984 133.424Z" stroke="#FCBF12" stroke-width="2"/>
</svg>
