<svg width="34" height="50" viewBox="0 0 34 50" fill="none" xmlns="http://www.w3.org/2000/svg">
<path d="M17 46.7358C16.6025 46.1775 16.1208 45.4942 15.5765 44.7091C13.993 42.4252 11.8842 39.2862 9.77784 35.8599C7.66834 32.4286 5.57784 28.7358 4.01958 25.3399C2.43466 21.8858 1.5 18.9456 1.5 16.9467C1.5 8.38076 8.39806 1.50024 17 1.50024C25.6019 1.50024 32.5 8.38076 32.5 16.9467C32.5 18.9456 31.5653 21.8858 29.9804 25.3399C28.4222 28.7358 26.3317 32.4286 24.2222 35.8599C22.1158 39.2862 20.007 42.4252 18.4235 44.7091C17.8792 45.4942 17.3975 46.1775 17 46.7358ZM7.77219 16.9438C7.77219 22.0924 11.8504 26.1473 17 26.1473C22.1497 26.1473 26.2278 22.0923 26.2278 16.9438C26.2278 11.7951 22.1496 7.74028 17 7.74028C11.8467 7.74028 7.77219 11.7989 7.77219 16.9438Z" stroke="#FF805C" stroke-width="3"/>
</svg>
