<svg width="220" height="220" viewBox="0 0 220 220" fill="none" xmlns="http://www.w3.org/2000/svg">
<path d="M220 102.061H149.791L214.643 75.2783L208.617 60.6435L143.67 87.5217L193.409 37.7826L182.217 26.5913L132.574 76.2348L159.452 11.3826L144.817 5.35652L117.939 70.3043V0H102.061V70.2087L75.2783 5.35652L60.6435 11.3826L87.5217 76.3304L37.7826 26.5913L26.5913 37.7826L76.2348 87.4261L11.3826 60.5478L5.35652 75.1826L70.3043 102.061H0V117.939H70.2087L5.35652 144.722L11.3826 159.357L76.3304 132.478L26.5913 182.217L37.7826 193.409L87.4261 143.765L60.5478 208.617L75.1826 214.643L102.061 149.696V220H117.939V149.791L144.722 214.643L159.357 208.617L132.478 143.67L182.217 193.409L193.409 182.217L143.765 132.574L208.617 159.452L214.643 144.817L149.696 117.939H220V102.061Z" fill="#00BB70"/>
</svg>
