<svg width="472" height="635" viewBox="0 0 472 635" fill="none" xmlns="http://www.w3.org/2000/svg">
<path opacity="0.2" d="M456.738 297.089L424.987 355.915L275.678 273.108L268.995 269.402V277.043V630.5H203.005V277.043V269.402L196.322 273.108L47.013 355.915L15.2617 297.089L134.889 230.64L147.251 223.773L133.194 222.233L4.95131 208.179L12.0818 141.441L135.517 155.113L147.665 156.458L139.29 147.556L50.0544 52.7142L97.6401 6.41641L232.723 149.995L236 153.478L239.277 149.995L374.37 6.40514L422.303 52.7252L333.078 147.556L324.698 156.463L336.852 155.113L459.918 141.442L467.049 208.179L338.806 222.233L324.749 223.773L337.111 230.64L456.738 297.089Z" stroke="url(#paint0_linear_713_9534)" stroke-width="9"/>
<defs>
<linearGradient id="paint0_linear_713_9534" x1="236" y1="0" x2="236" y2="635" gradientUnits="userSpaceOnUse">
<stop offset="0.366895" stop-color="white"/>
<stop offset="0.731485" stop-color="#FCBF12" stop-opacity="0"/>
</linearGradient>
</defs>
</svg>
